<?xml version="1.0" encoding="UTF-8"?>
<svg version="1.1" xmlns="http://www.w3.org/2000/svg" width="529" height="551">
<path d="M0 0 C174.57 0 349.14 0 529 0 C529 181.83 529 363.66 529 551 C354.43 551 179.86 551 0 551 C0 369.17 0 187.34 0 0 Z " fill="#FDFDFD" transform="translate(0,0)"/>
<path d="M0 0 C3.79270327 0.63254752 7.04255793 1.73872675 10.5703125 3.2578125 C11.62766602 3.70801758 12.68501953 4.15822266 13.77441406 4.62207031 C14.83885742 5.07678711 15.90330078 5.53150391 17 6 C34.10271417 13.09193318 51.30966039 19.91887925 68.53857422 26.69677734 C69.30866318 26.99999908 70.07875214 27.30322083 70.87217712 27.6156311 C72.39759327 28.2151985 73.92376196 28.81285502 75.45069885 29.40853882 C78.98570847 30.79133305 82.50039665 32.20138154 85.98461914 33.70800781 C94.26899721 37.25756782 101.97859873 39.17707153 110.9375 40.125 C112.90160366 40.35972592 114.86570502 40.59447273 116.8296814 40.83026123 C118.86277047 41.07117774 120.89674439 41.30273607 122.93115234 41.53222656 C128.22625849 42.13384607 133.51042129 42.81902814 138.79638672 43.49560547 C148.40055413 44.72088705 158.01020119 45.89456844 167.62890625 47 C170.52346866 47.33306353 173.41801503 47.6662641 176.3125 48 C177.38158096 48.1232515 177.38158096 48.1232515 178.47225952 48.24899292 C188.99207675 49.46775679 199.47159806 50.85900921 209.93286133 52.51757812 C218.09565512 53.79201046 226.28450663 54.77000402 234.48779297 55.73910522 C243.33335155 56.78860966 252.16981034 57.90184988 261.00390625 59.04296875 C261.68134699 59.13044939 262.35878773 59.21793003 263.05675697 59.3080616 C267.19049453 59.84222627 271.32400857 60.3781045 275.4574585 60.91448975 C279.03207505 61.37809437 282.60686652 61.84034642 286.18164062 62.30273438 C293.12125918 63.20054786 300.06069304 64.09978103 307 65 C304.26890786 67.73109214 301.45152817 67.82057 297.7734375 68.38671875 C296.99092621 68.5118132 296.20841492 68.63690765 295.40219116 68.76579285 C283.91023881 70.5470339 272.35499679 71.89477868 260.81256104 73.30151367 C253.63419162 74.17642179 246.45762838 75.06595991 239.28125 75.95703125 C238.56827885 76.04547428 237.85530769 76.13391731 237.12073135 76.22504044 C225.10781285 77.71698889 213.11304227 79.32009382 201.125 81 C178.63630334 84.14540857 156.09212251 86.83707621 133.54625225 89.53489017 C130.19757123 89.93559268 126.84933532 90.33931771 123.50160217 90.74790955 C113.13859169 92.00914224 113.13859169 92.00914224 108.10668945 92.45141602 C97.81516927 93.43616284 89.16187106 96.53491434 79.6875 100.4375 C78.10212429 101.07435735 76.51609368 101.7095866 74.92944336 102.34326172 C70.99857953 103.91821469 67.07683234 105.51449125 63.15783691 107.11871338 C60.00308445 108.40715233 56.84132852 109.67777543 53.6796875 110.94921875 C44.43908851 114.67803437 35.23156472 118.48562138 26.03125 122.3125 C24.68872381 122.87028742 23.34619453 123.42806742 22.00366211 123.98583984 C19.42995106 125.05527691 16.8580857 126.12899085 14.28735352 127.20556641 C12.55376587 127.92752197 12.55376587 127.92752197 10.78515625 128.6640625 C9.25193726 129.30529053 9.25193726 129.30529053 7.68774414 129.95947266 C5.4557274 130.8235707 3.33437762 131.49562695 1 132 C2.24157155 128.09046171 3.65285782 124.41273227 5.43359375 120.71875 C5.91892578 119.70941406 6.40425781 118.70007813 6.90429688 117.66015625 C7.66323242 116.09587891 7.66323242 116.09587891 8.4375 114.5 C8.90865234 113.51902344 9.37980469 112.53804688 9.86523438 111.52734375 C13.41823433 104.16327899 17.06659192 96.848328 20.72680664 89.53710938 C21.48922039 88.01328644 21.48922039 88.01328644 22.26703644 86.4586792 C23.51108576 83.97231659 24.75541362 81.48609381 26 79 C24.87225442 79.00092179 23.74450884 79.00184359 22.58258915 79.00279331 C-4.81505547 79.02495948 -32.21269893 79.04140986 -59.61035061 79.05181217 C-72.85945898 79.05697592 -86.10856144 79.0640201 -99.35766602 79.07543945 C-110.90100882 79.0853839 -122.44434735 79.09185286 -133.98769432 79.09408849 C-140.10392255 79.09539601 -146.22013853 79.09848442 -152.33636284 79.10573006 C-158.08590521 79.11248651 -163.83543023 79.11461773 -169.5849762 79.11310768 C-171.70184486 79.11338418 -173.81871406 79.11539151 -175.9355793 79.11920547 C-178.81229417 79.12413687 -181.68894235 79.12300035 -184.56565857 79.12025452 C-185.4148634 79.12316736 -186.26406824 79.1260802 -187.13900656 79.12908131 C-192.88587879 79.11412121 -192.88587879 79.11412121 -194 78 C-194 69.75 -194 61.5 -194 53 C-121.4 53 -48.8 53 26 53 C23.36 47.72 20.72 42.44 18 37 C16.50735539 33.85897739 15.0245366 30.7173262 13.5625 27.5625 C10.17080638 20.30994476 6.55237073 13.20783668 2.74243164 6.16625977 C0 1.08984375 0 1.08984375 0 0 Z " fill="#BB5927" transform="translate(207,207)"/>
<path d="M0 0 C2.96320376 2.58638016 5.8544802 5.24230961 8.72265625 7.93359375 C11.01858674 10.11951349 11.01858674 10.11951349 14 12 C14 12.66 14 13.32 14 14 C14.57492187 14.24105469 15.14984375 14.48210937 15.7421875 14.73046875 C40.18242453 28.47281656 58.46885925 71.99919534 66 97 C68.17087258 104.86409954 70.30792872 112.78856737 70 121 C63.55716721 121.10402152 57.33540878 120.73459309 50.9375 120 C50.07189453 119.90460938 49.20628906 119.80921875 48.31445312 119.7109375 C46.20915031 119.47830736 44.10450044 119.23978031 42 119 C40.747409 115.30485656 39.56112639 111.59367819 38.40625 107.8671875 C23.96366439 62.02216257 -4.74187359 27.43770318 -46.8828125 4.42578125 C-54.39825942 0.68853585 -62.3210095 -1.97236181 -70.25 -4.6875 C-71.3440918 -5.06841797 -72.43818359 -5.44933594 -73.56542969 -5.84179688 C-88.75861021 -10.90172836 -103.43820596 -12.53552039 -119.375 -12.375 C-120.18227539 -12.37101196 -120.98955078 -12.36702393 -121.82128906 -12.36291504 C-138.65145932 -12.26551051 -153.99630512 -10.59214243 -170 -5 C-171.04542969 -4.67644531 -172.09085938 -4.35289063 -173.16796875 -4.01953125 C-189.26704279 1.20842128 -204.56505874 9.76119968 -218 20 C-218.88042969 20.65871094 -219.76085937 21.31742188 -220.66796875 21.99609375 C-238.6550297 36.05097594 -252.93244779 53.11592315 -264 73 C-264.34272949 73.60618164 -264.68545898 74.21236328 -265.03857422 74.83691406 C-269.77184288 83.31555999 -273.26551916 92.05511525 -276.375 101.25 C-276.87592163 102.72231079 -276.87592163 102.72231079 -277.38696289 104.22436523 C-279.37554907 110.33541795 -280.68951465 116.32677259 -281.59228516 122.69042969 C-282 125 -282 125 -283 126 C-285.07262076 126.08767112 -287.14820294 126.10695873 -289.22265625 126.09765625 C-290.48271484 126.09443359 -291.74277344 126.09121094 -293.04101562 126.08789062 C-294.38151109 126.07953403 -295.72200588 126.07106907 -297.0625 126.0625 C-298.40689942 126.0574866 -299.7513006 126.05292342 -301.09570312 126.04882812 C-304.39717941 126.03699488 -307.69856803 126.02050971 -311 126 C-310.56456658 118.47478002 -309.96451009 111.27204186 -307.9375 104 C-307.71980957 103.20513184 -307.50211914 102.41026367 -307.27783203 101.59130859 C-301.05169018 79.66520437 -291.49360659 58.43863201 -278 40 C-277.26652344 38.98292969 -276.53304687 37.96585937 -275.77734375 36.91796875 C-254.00552322 7.34896596 -222.35152304 -18.54008552 -187.078125 -29.96484375 C-183.92003787 -30.97432884 -183.92003787 -30.97432884 -180.671875 -32.47265625 C-122.68118966 -56.59431366 -47.28307619 -38.97839992 0 0 Z " fill="#314653" transform="translate(386,122)"/>
<path d="M0 0 C9.57 0 19.14 0 29 0 C29.4125 2.3925 29.825 4.785 30.25 7.25 C31.56808765 14.42472267 33.3889153 21.17423838 36 28 C36.23702637 28.62986816 36.47405273 29.25973633 36.71826172 29.90869141 C46.08821803 54.58349789 60.35355433 74.4648764 79 93 C79.5244873 93.54519287 80.04897461 94.09038574 80.58935547 94.65209961 C100.24266171 114.88180631 127.74204763 127.65243284 154.98681641 133.54443359 C157.59609565 134.1348914 160.17650003 134.82208067 162.7565918 135.52856445 C168.94064322 136.82809686 175.09420531 137.17250942 181.390625 137.23828125 C182.16875046 137.24816574 182.94687592 137.25805023 183.74858093 137.26823425 C207.66066902 137.62078615 207.66066902 137.62078615 231 133 C232.37599365 132.58137695 232.37599365 132.58137695 233.77978516 132.15429688 C246.4455718 128.21596678 258.3820221 123.38793634 270 117 C271.01707031 116.45988281 272.03414063 115.91976562 273.08203125 115.36328125 C293.73830027 103.94288084 311.54651373 87.33938652 325 68 C326.11375 66.42798828 326.11375 66.42798828 327.25 64.82421875 C339.52427315 46.97363008 346.85166026 26.91943044 352 6 C362.00173656 4.53875338 371.9067296 3.54403443 382 3 C379.68503777 35.98821183 361.6856226 71.60367457 340 96 C339.319375 96.78890625 338.63875 97.5778125 337.9375 98.390625 C319.16816849 119.78214253 297.90127291 137.03481043 272 149 C270.88367188 149.52207031 269.76734375 150.04414063 268.6171875 150.58203125 C250.59932172 158.65386474 232.5330367 163.33114841 213 166 C211.74445313 166.19335938 210.48890625 166.38671875 209.1953125 166.5859375 C191.70584441 168.69170774 173.18385478 167.62835432 156 164 C154.51721185 163.71725249 153.03413445 163.43601799 151.55078125 163.15625 C113.14887737 155.60294203 76.55436395 134.77881329 50 106 C49.46632812 105.42507813 48.93265625 104.85015625 48.3828125 104.2578125 C34.06232986 88.35349767 22.99788017 70.36227257 14 51 C13.44441406 49.80632812 12.88882813 48.61265625 12.31640625 47.3828125 C7.41236465 36.4006944 4.41822602 25.12664604 1.75 13.4375 C1.57452637 12.6753418 1.39905273 11.91318359 1.21826172 11.12792969 C1.0585791 10.40379883 0.89889648 9.67966797 0.734375 8.93359375 C0.59225586 8.29478271 0.45013672 7.65597168 0.30371094 6.99780273 C0 5 0 5 0 0 Z " fill="#314654" transform="translate(75,299)"/>
<path d="M0 0 C2.34570312 1.31591797 2.34570312 1.31591797 4.78125 2.9921875 C5.69447021 3.6094873 6.60769043 4.22678711 7.54858398 4.86279297 C9.00953491 5.85883545 9.00953491 5.85883545 10.5 6.875 C31.44210033 20.78572363 53.35137429 31.24980506 77.6875 37.8125 C78.44111816 38.02302002 79.19473633 38.23354004 79.97119141 38.45043945 C84.19607421 39.55056615 88.08785869 40.10178415 92.45703125 40.203125 C103.43825913 40.74539597 103.43825913 40.74539597 108 44 C114.44284641 53.30261627 117.3590327 65.14489632 120 76 C100.98594195 75.43326206 82.01077925 72.59590629 63.93115234 66.62353516 C62.01196354 66.00386282 60.08427794 65.43833575 58.14453125 64.88671875 C24.63075813 55.21863581 -7.29520325 36.45271486 -33 13 C-29.03241035 8.41799786 -23.04902343 6.63828059 -17.625 4.25 C-15.91957031 3.47076172 -15.91957031 3.47076172 -14.1796875 2.67578125 C-13.08140625 2.18980469 -11.983125 1.70382812 -10.8515625 1.203125 C-9.84947754 0.75614258 -8.84739258 0.30916016 -7.81494141 -0.15136719 C-4.61786712 -1.11520329 -3.14002101 -1.06431778 0 0 Z " fill="#324654" transform="translate(132,449)"/>
<path d="M0 0 C-0.433125 1.24265625 -0.86625 2.4853125 -1.3125 3.765625 C-2.53957638 7.3928855 -3.47210289 11.00011047 -4.3125 14.734375 C-5.94980707 21.0206668 -7.65578012 27.02995335 -12 32 C-19.2177856 35.78019696 -27.68151484 35.94532916 -35.66552734 36.62207031 C-40.388625 37.15738699 -44.70351343 38.40267474 -49.1875 39.9375 C-50.32819946 40.32095581 -50.32819946 40.32095581 -51.49194336 40.7121582 C-53.66773107 41.45763495 -55.83363062 42.22766413 -58 43 C-59.33833938 43.45502251 -60.67687688 43.90946275 -62.015625 44.36328125 C-83.40431269 51.80340182 -104.73569918 63.2760918 -122 78 C-132.55779252 73.80638581 -142.76590461 68.91924855 -153 64 C-153 63.34 -153 62.68 -153 62 C-151.22366023 60.44917815 -149.44877799 59.03244514 -147.5625 57.625 C-146.98483887 57.18873291 -146.40717773 56.75246582 -145.81201172 56.30297852 C-133.63122698 47.16980487 -121.26640386 38.48704505 -108 31 C-107.31309082 30.60603027 -106.62618164 30.21206055 -105.91845703 29.80615234 C-80.8899046 15.56138857 -53.3575571 6.63921032 -25 2 C-23.86175781 1.79503906 -22.72351563 1.59007813 -21.55078125 1.37890625 C-14.30726188 0.13593547 -7.34368871 -0.23817369 0 0 Z " fill="#314653" transform="translate(252,21)"/>
<path d="M0 0 C3.53328516 1.17011392 6.86153036 2.60664922 10.1953125 4.24609375 C11.51278554 4.8780949 12.83049622 5.50960087 14.1484375 6.140625 C14.79619141 6.45338379 15.44394531 6.76614258 16.11132812 7.08837891 C18.87158422 8.40952105 21.65695915 9.67305577 24.4453125 10.93359375 C25.77369141 11.53494141 25.77369141 11.53494141 27.12890625 12.1484375 C27.74894531 12.42816406 28.36898437 12.70789063 29.0078125 12.99609375 C6.16855282 36.5490803 -25.91020181 54.11210642 -56.9921875 63.99609375 C-58.68018114 64.55711067 -60.3677387 65.11944285 -62.0546875 65.68359375 C-62.70566406 65.89371094 -63.35664063 66.10382813 -64.02734375 66.3203125 C-66.05546357 66.99117348 -66.05546357 66.99117348 -68.21875 67.94848633 C-71.23939086 69.0894696 -74.17066583 69.77764922 -77.33203125 70.43359375 C-79.17571289 70.81644531 -79.17571289 70.81644531 -81.05664062 71.20703125 C-82.33474609 71.46742188 -83.61285156 71.7278125 -84.9296875 71.99609375 C-86.79463867 72.38667969 -86.79463867 72.38667969 -88.69726562 72.78515625 C-100.04579005 75.11970985 -111.36661963 77.3969754 -122.9921875 76.99609375 C-122.06539826 70.30579506 -119.62134287 64.48165344 -117.1171875 58.24609375 C-116.66988281 57.09753906 -116.22257812 55.94898438 -115.76171875 54.765625 C-115.32472656 53.67121094 -114.88773437 52.57679688 -114.4375 51.44921875 C-113.84219482 49.95116699 -113.84219482 49.95116699 -113.23486328 48.42285156 C-111.9921875 45.99609375 -111.9921875 45.99609375 -108.9921875 43.99609375 C-106.67407227 43.40527344 -106.67407227 43.40527344 -103.93359375 42.91796875 C-102.91837646 42.73016846 -101.90315918 42.54236816 -100.85717773 42.34887695 C-99.76735596 42.1499585 -98.67753418 41.95104004 -97.5546875 41.74609375 C-65.28718702 35.51320247 -34.34984652 23.37860717 -8.13867188 3.20922852 C-5.31964252 1.13053871 -3.55203096 -0.00463712 0 0 Z " fill="#314654" transform="translate(403.9921875,448.00390625)"/>
<path d="M0 0 C13.38121839 0.20246685 26.055452 2.51418977 39.10742188 5.37109375 C41.61462892 5.91621236 44.12501811 6.43303935 46.640625 6.9375 C84.63536762 14.83515909 122.17957513 36.37002807 151 62 C151.33 62.66 151.66 63.32 152 64 C147.96934771 65.88711795 143.93095461 67.75618142 139.88452148 69.60913086 C138.50987311 70.24162784 137.13743772 70.87895811 135.76733398 71.52124023 C133.79456041 72.44501633 131.81441377 73.35097019 129.83203125 74.25390625 C128.64327393 74.80377197 127.4545166 75.3536377 126.22973633 75.92016602 C122.83351924 77.05566138 121.3379082 77.15324233 118 76 C115.6328125 74.46875 115.6328125 74.46875 113.125 72.5 C106.38484005 67.4403625 99.29908019 63.18979871 92 59 C91.40735352 58.65437012 90.81470703 58.30874023 90.20410156 57.95263672 C70.54475339 46.56200384 42.69072311 34.34789263 19.68359375 33.94140625 C16.25006832 33.80238007 14.04883131 33.61052768 11 32 C8.39161131 27.5759157 7.00438794 23.0656461 5.63232422 18.140625 C4.67369697 14.89535715 3.39933278 11.82214683 2.125 8.6875 C0 3.36163522 0 3.36163522 0 0 Z " fill="#314653" transform="translate(281,21)"/>
<path d="M0 0 C0.66 0 1.32 0 2 0 C3.88463637 4.0500847 5.75384817 8.10682504 7.60913086 12.17041016 C8.2423112 13.55157024 8.8796551 14.93082952 9.52124023 16.30810547 C10.44317233 18.28908117 11.34987567 20.27642804 12.25390625 22.265625 C12.80377197 23.45961914 13.3536377 24.65361328 13.92016602 25.88378906 C14.99291181 28.97954474 15.32713226 30.07883306 14 33 C12.59712769 34.89647553 11.12792615 36.74429123 9.625 38.5625 C3.07216449 46.78157344 -1.9814273 55.78989984 -7 65 C-7.37398926 65.67933594 -7.74797852 66.35867187 -8.13330078 67.05859375 C-19.62725414 88.14763785 -26.28842386 111.34562666 -30 135 C-56.00409836 144 -56.00409836 144 -62 144 C-64.06595784 92.63799268 -33.4728235 40.53959677 -2.06640625 2.203125 C-1.38449219 1.47609375 -0.70257813 0.7490625 0 0 Z " fill="#314653" transform="translate(77,106)"/>
<path d="M0 0 C4.18308933 1.8731571 6.40575065 4.66130772 9.125 8.25 C9.60437012 8.87334229 10.08374023 9.49668457 10.57763672 10.13891602 C12.06385409 12.08380323 13.53460244 14.03938891 15 16 C15.44214844 16.58958496 15.88429688 17.17916992 16.33984375 17.78662109 C22.83715368 26.50812412 28.62465662 35.54918628 34 45 C34.36448242 45.63180176 34.72896484 46.26360352 35.10449219 46.91455078 C46.00914214 65.96640832 53.43966338 86.30726006 58.43896484 107.63867188 C59.14960098 110.62965216 59.95279373 113.5935939 60.75 116.5625 C62.96723699 125.54952565 64.37060065 134.73498381 64 144 C57.63642954 143.35120022 51.8207684 141.52869214 45.75 139.5625 C44.26113281 139.09360352 44.26113281 139.09360352 42.7421875 138.61523438 C35.38753669 136.2583578 35.38753669 136.2583578 32 134 C31.32739258 131.95068359 31.32739258 131.95068359 30.89453125 129.3984375 C30.72050781 128.44606201 30.54648437 127.49368652 30.3671875 126.51245117 C30.18414062 125.47709229 30.00109375 124.4417334 29.8125 123.375 C23.97670859 93.49118319 12.02534784 62.54381728 -7.56640625 38.84375 C-8.32824219 37.9053125 -9.09007812 36.966875 -9.875 36 C-10.55304688 35.236875 -11.23109375 34.47375 -11.9296875 33.6875 C-13.39284369 30.01358957 -12.50364844 28.15477098 -11.10351562 24.55517578 C-10.73935547 23.71196777 -10.37519531 22.86875977 -10 22 C-9.60490234 21.0807373 -9.20980469 20.16147461 -8.80273438 19.21435547 C-7.50397441 16.27336591 -6.16550794 13.353898 -4.8125 10.4375 C-4.34908203 9.42880859 -3.88566406 8.42011719 -3.40820312 7.38085938 C-2.27627662 4.9186275 -1.1401475 2.45843306 0 0 Z " fill="#314653" transform="translate(453,106)"/>
<path d="M0 0 C7.38174367 2.20715568 14.75490641 4.4417781 22.125 6.6875 C23.176875 7.00783203 24.22875 7.32816406 25.3125 7.65820312 C27.87505615 8.43861795 30.43755509 9.21922002 33 10 C33.15855469 11.02996094 33.31710938 12.05992187 33.48046875 13.12109375 C35.18538049 23.71491527 37.70941433 33.79441545 41 44 C41.20431641 44.65871094 41.40863281 45.31742187 41.61914062 45.99609375 C48.84140921 69.15320891 60.25616732 91.79875872 75.69921875 110.5703125 C77.45316525 113.84645281 76.81752811 115.40958536 76 119 C75.22586024 121.11428825 74.3867305 123.20552228 73.49609375 125.2734375 C73.00302734 126.42714844 72.50996094 127.58085937 72.00195312 128.76953125 C71.48568359 129.95933594 70.96941406 131.14914062 70.4375 132.375 C69.91736328 133.58800781 69.39722656 134.80101562 68.86132812 136.05078125 C67.58008244 139.03643633 66.29280626 142.01933688 65 145 C59.09960678 142.26357463 55.90367383 137.04584883 52 132 C51.37496582 131.20916016 51.37496582 131.20916016 50.73730469 130.40234375 C23.84039312 96.24100235 -0.83597312 44.42459526 0 0 Z " fill="#324654" transform="translate(14,295)"/>
<path d="M0 0 C0.30637661 7.35804479 -0.53295952 14.0129104 -2.125 21.1875 C-2.3516333 22.22777344 -2.5782666 23.26804687 -2.81176758 24.33984375 C-3.52503363 27.5637771 -4.25992357 30.78212595 -5 34 C-5.32895264 35.46687256 -5.32895264 35.46687256 -5.66455078 36.96337891 C-10.47491917 58.13260307 -18.75693007 77.89820104 -29 97 C-29.61101562 98.15113281 -30.22203125 99.30226563 -30.8515625 100.48828125 C-38.21764969 113.87152197 -47.24981932 126.25906317 -57 138 C-57.75603516 138.95712891 -57.75603516 138.95712891 -58.52734375 139.93359375 C-59.63809738 141.32767005 -60.81145385 142.6716249 -62 144 C-62.66 144 -63.32 144 -64 144 C-65.6945704 140.08728383 -67.38512435 136.17286434 -69.07202148 132.25683594 C-69.64612244 130.92563428 -70.2213071 129.59489943 -70.79760742 128.26464844 C-71.62706117 126.34953348 -72.45256868 124.43275874 -73.27734375 122.515625 C-73.77484131 121.36352539 -74.27233887 120.21142578 -74.78491211 119.02441406 C-76.78583534 114.04401683 -76.78583534 114.04401683 -77 112 C-75.69572417 110.41371858 -74.37208024 108.84162592 -72.98828125 107.32421875 C-57.30543837 88.99162245 -47.73143064 65.54161025 -40 43 C-39.57074219 41.78054688 -39.14148438 40.56109375 -38.69921875 39.3046875 C-37.1192471 34.53427117 -35.95169634 29.88343823 -35.1953125 24.91796875 C-35.04747314 24.0146582 -34.89963379 23.11134766 -34.74731445 22.18066406 C-34.46388215 20.39254204 -34.21580028 18.59834839 -34.00854492 16.79980469 C-33.05760522 10.80635893 -33.05760522 10.80635893 -30.21386719 8.63818359 C-27.84171033 7.53806047 -25.50643225 6.74387048 -23 6 C-22.1551001 5.71761475 -21.3102002 5.43522949 -20.43969727 5.14428711 C-17.84747796 4.29553763 -15.24312429 3.51475762 -12.625 2.75 C-11.73683594 2.481875 -10.84867187 2.21375 -9.93359375 1.9375 C-3.39947385 0 -3.39947385 0 0 0 Z " fill="#314653" transform="translate(517,296)"/>
<path d="M0 0 C14.25598722 5.3845666 28.45767708 10.90069195 42.63671875 16.484375 C43.72726562 16.91041016 44.8178125 17.33644531 45.94140625 17.77539062 C47.83262387 18.53260228 49.71326762 19.31766927 51.57421875 20.14648438 C58.45289194 23.16707057 65.19325204 24.13873879 72.625 25 C74.59426563 25.24527956 76.56353055 25.4905649 78.53276062 25.73612976 C80.5985861 25.99129099 82.66510114 26.23995283 84.73193359 26.48681641 C89.1007796 27.00952729 93.46656336 27.55534097 97.83203125 28.10546875 C102.06352255 28.63839875 106.29501815 29.17102029 110.52783203 29.69335938 C112.43024658 29.92829102 112.43024658 29.92829102 114.37109375 30.16796875 C115.48411865 30.30485107 116.59714355 30.4417334 117.74389648 30.58276367 C121.16785749 31.02150922 124.58389876 31.50403151 128 32 C128 32.33 128 32.66 128 33 C116.80484518 33.24939701 106.10028788 32.6282644 95 31 C91.2927239 30.47147622 87.58406718 29.95328674 83.875 29.4375 C82.93567627 29.30424316 81.99635254 29.17098633 81.02856445 29.03369141 C75.67203294 28.29307923 70.40119834 27.8022995 65 27.5625 C59.7940194 27.26607406 57.18968065 26.21533631 53 23 C50.62778658 22.34683989 48.28261138 21.89061292 45.85546875 21.4921875 C45.24316406 21.32976562 44.63085938 21.16734375 44 21 C43.505 20.01 43.505 20.01 43 19 C41.19322609 18.30192826 39.3523955 17.69100974 37.5 17.125 C33.58150359 15.88243641 29.84631294 14.55884993 26.125 12.8125 C22.7484277 11.24043645 19.70139111 10.52877016 16 10 C15.01 9.34 14.02 8.68 13 8 C11.53137208 7.65921341 10.04997273 7.3708218 8.5625 7.125 C4.62341554 6.31665368 2.42782908 5.37784916 0 2 C0 1.34 0 0.68 0 0 Z " fill="#AB623D" transform="translate(245,222)"/>
<path d="M0 0 C72.27 0 144.54 0 219 0 C217.50748294 4.47755118 215.99752948 8.22222494 213.875 12.375 C213.33617187 13.43460937 212.79734375 14.49421875 212.2421875 15.5859375 C211.83226562 16.38257813 211.42234375 17.17921875 211 18 C210.67 18 210.34 18 210 18 C209.57683441 13.34517848 211.06302396 10.18386825 213 6 C213.33 5.01 213.66 4.02 214 3 C209.11088485 2.02647442 204.34840932 1.8479163 199.38198853 1.84178162 C198.52748309 1.83684364 197.67297765 1.83190566 196.7925781 1.82681805 C193.93675318 1.81149184 191.08095066 1.80309567 188.22509766 1.79467773 C186.17497563 1.78509538 184.12485556 1.77508508 182.07473755 1.76467896 C176.5132993 1.73766261 170.9518526 1.71663533 165.39038515 1.69667697 C159.57675927 1.67479726 153.76315936 1.64741828 147.94955444 1.62062073 C136.94248584 1.57072071 125.9354028 1.52577188 114.92830598 1.48259836 C102.39634458 1.43320301 89.86440923 1.37829339 77.33247304 1.32291877 C51.55500635 1.20914002 25.77751465 1.10229203 0 1 C0 0.67 0 0.34 0 0 Z " fill="#FEF2E1" transform="translate(14,286)"/>
<path d="M0 0 C2.97595467 2.55081829 4.44002566 5.43434437 6 9 C6 9.99 6 10.98 6 12 C-66.27 12 -138.54 12 -213 12 C-213 11.67 -213 11.34 -213 11 C-106.575 10.505 -106.575 10.505 2 10 C1.01 7.525 1.01 7.525 0 5 C-0.125 2.1875 -0.125 2.1875 0 0 Z " fill="#FFF3DE" transform="translate(227,248)"/>
<path d="M0 0 C14.39603793 1.54432317 28.76021243 3.31514437 43.125 5.125 C45.35545414 5.4050643 47.58592281 5.68501293 49.81640625 5.96484375 C55.21110522 6.64189963 60.60562493 7.32036855 66 8 C63.16826854 10.83173146 60.02208287 10.87493532 56.20703125 11.45703125 C55.41126175 11.58366653 54.61549225 11.71030182 53.79560852 11.84077454 C45.02218721 13.20614762 36.21505169 14.3081602 27.3996582 15.36254883 C24.64401534 15.69271002 21.88938393 16.03054757 19.13476562 16.36914062 C17.36463737 16.58377943 15.59445697 16.79798874 13.82421875 17.01171875 C13.00966721 17.11167648 12.19511566 17.21163422 11.35588074 17.31462097 C7.54624816 17.7664586 3.84507999 18.12189014 0 18 C0 17.34 0 16.68 0 16 C0.61488281 15.86722656 1.22976563 15.73445313 1.86328125 15.59765625 C2.67152344 15.42105469 3.47976563 15.24445313 4.3125 15.0625 C5.11300781 14.88847656 5.91351563 14.71445312 6.73828125 14.53515625 C9.145401 14.00113841 9.145401 14.00113841 12 13 C14.54760941 12.93295765 17.07750612 13.00184538 19.625 13.0625 C22.1512134 13.11135199 22.1512134 13.11135199 25 12 C27.13565085 11.78201064 29.27614925 11.61021611 31.41796875 11.46484375 C32.67158203 11.37783203 33.92519531 11.29082031 35.21679688 11.20117188 C36.52712891 11.11416016 37.83746094 11.02714844 39.1875 10.9375 C40.52281112 10.8460625 41.85809796 10.75426975 43.19335938 10.66210938 C46.46201727 10.4379054 49.7308804 10.21735074 53 10 C53 9.34 53 8.68 53 8 C51.85724609 8.03480469 51.85724609 8.03480469 50.69140625 8.0703125 C49.65886719 8.08835937 48.62632812 8.10640625 47.5625 8.125 C46.55316406 8.14820313 45.54382813 8.17140625 44.50390625 8.1953125 C40.95721273 7.99761498 37.83009924 7.33415031 34.38891602 6.51660156 C30.35665934 5.64462863 26.28752466 5.23193155 22.1875 4.8125 C21.35541016 4.71775391 20.52332031 4.62300781 19.66601562 4.52539062 C18.86228516 4.44095703 18.05855469 4.35652344 17.23046875 4.26953125 C16.51270264 4.19323486 15.79493652 4.11693848 15.05541992 4.03833008 C12.86030167 3.99739486 11.11595563 4.45846021 9 5 C6.640625 4.44140625 6.640625 4.44140625 4.25 3.5625 C3.45078125 3.27503906 2.6515625 2.98757813 1.828125 2.69140625 C1.22484375 2.46324219 0.6215625 2.23507812 0 2 C0 1.34 0 0.68 0 0 Z " fill="#AD663F" transform="translate(448,264)"/>
<path d="M0 0 C2 3 2 3 2 7 C1.01 7 0.02 7 -1 7 C-1.66 9.64 -2.32 12.28 -3 15 C-3.66 15 -4.32 15 -5 15 C-5.433125 16.11375 -5.433125 16.11375 -5.875 17.25 C-7 20 -7 20 -8.125 22.0625 C-9.27439115 24.25326058 -9.27439115 24.25326058 -9 28 C0.47777192 26.37574907 9.54102759 22.47827951 18 18 C22.96688691 15.56012573 26.4552503 14.66052553 32 15 C29.58485517 16.61009655 27.60025074 17.67552692 24.95922852 18.77172852 C24.15151505 19.10870255 23.34380157 19.44567657 22.51161194 19.79286194 C21.64281906 20.15125656 20.77402618 20.50965118 19.87890625 20.87890625 C18.53444679 21.43710304 18.53444679 21.43710304 17.16282654 22.00657654 C15.26797506 22.79233364 13.3724544 23.57647866 11.47631836 24.35913086 C8.57541542 25.5571661 5.67723099 26.76160084 2.77929688 27.96679688 C0.93765962 28.72955218 -0.90413218 29.49193447 -2.74609375 30.25390625 C-3.6128624 30.6143251 -4.47963104 30.97474396 -5.37266541 31.34608459 C-6.18353104 31.67990646 -6.99439667 32.01372833 -7.82983398 32.35766602 C-8.89547829 32.79829124 -8.89547829 32.79829124 -9.98265076 33.24781799 C-11.97013963 33.98886636 -13.93368745 34.52795532 -16 35 C-14.69489242 30.85459047 -13.14315289 26.9962906 -11.25 23.0859375 C-10.7240625 21.99539063 -10.198125 20.90484375 -9.65625 19.78125 C-9.1096875 18.6571875 -8.563125 17.533125 -8 16.375 C-7.4534375 15.24320312 -6.906875 14.11140625 -6.34375 12.9453125 C-4.25213487 8.61854002 -2.15892643 4.29366678 0 0 Z " fill="#AB6442" transform="translate(224,304)"/>
<path d="M0 0 C0 0.33 0 0.66 0 1 C-8.95317846 2.18102841 -17.90724022 3.35505343 -26.86247826 4.52036285 C-31.02156454 5.06178715 -35.18031768 5.60553953 -39.33837891 6.15478516 C-43.35769367 6.68561353 -47.37779138 7.21010065 -51.39848709 7.73036194 C-52.92561461 7.9290665 -54.45245626 8.12998198 -55.97898483 8.33323669 C-64.02143283 9.40258115 -71.87282856 10.25114006 -80 10 C-76.32269597 7.54846398 -72.96627593 7.20800656 -68.6875 6.625 C-67.39730957 6.44155029 -67.39730957 6.44155029 -66.08105469 6.25439453 C-64.14297695 5.98133551 -62.20429156 5.71256741 -60.26513672 5.44726562 C-56.69754544 4.95856911 -53.13210971 4.45540107 -49.56640625 3.953125 C-33.00328729 1.65055402 -16.74927989 -0.31937186 0 0 Z " fill="#AC6640" transform="translate(416,286)"/>
<path d="M0 0 C-0.92683594 0.20496094 -1.85367188 0.40992188 -2.80859375 0.62109375 C-4.00613281 0.89050781 -5.20367187 1.15992188 -6.4375 1.4375 C-8.22994141 1.83775391 -8.22994141 1.83775391 -10.05859375 2.24609375 C-12.8704686 2.70066748 -12.8704686 2.70066748 -14 4 C-17.59673953 4.69416114 -21.24191547 5.10201868 -24.875 5.5625 C-25.94878906 5.69889893 -27.02257812 5.83529785 -28.12890625 5.97583008 C-37.79043161 7.12134969 -47.28704503 7.30925682 -57 7 C-57 6.67 -57 6.34 -57 6 C-55.82083008 5.85900879 -54.64166016 5.71801758 -53.42675781 5.57275391 C-48.99819852 5.04249235 -44.57008553 4.50857869 -40.14208984 3.97363281 C-38.23563181 3.74381498 -36.32905846 3.51495138 -34.42236328 3.28710938 C-31.66146342 2.95701752 -28.90093608 2.62404091 -26.140625 2.2890625 C-25.24863403 2.18104309 -24.35664307 2.07302368 -23.43762207 1.96173096 C-17.67451325 1.24876212 -11.96708102 0.3769868 -6.26855469 -0.75244141 C-3.8908406 -1.01191214 -2.26062902 -0.73245424 0 0 Z " fill="#F8E2D0" transform="translate(510,275)"/>
<path d="M0 0 C1.07765625 0.01804687 2.1553125 0.03609375 3.265625 0.0546875 C4.49539062 0.08949219 4.49539062 0.08949219 5.75 0.125 C4.20730076 4.84565967 2.67205381 9.54164092 0.75 14.125 C0.09 13.795 -0.57 13.465 -1.25 13.125 C-1.91 13.785 -2.57 14.445 -3.25 15.125 C-3.58 14.135 -3.91 13.145 -4.25 12.125 C-2.8125 9.4375 -2.8125 9.4375 -1.25 7.125 C-4.08430453 3.8707985 -5.93607774 2.6043247 -10.25 2.125 C-6.7733662 -0.01836161 -4.03770805 -0.08777626 0 0 Z " fill="#47545F" transform="translate(246.25,20.875)"/>
<path d="M0 0 C-3.26346768 3.26346768 -7.54532156 3.04062684 -12 3.625 C-12.97791504 3.75688721 -13.95583008 3.88877441 -14.96337891 4.0246582 C-24.00609272 5.15811131 -32.90381529 5.30320616 -42 5 C-42 4.67 -42 4.34 -42 4 C-36.66273348 3.25998122 -31.32424175 2.52985494 -25.984375 1.80883789 C-24.16824935 1.56220154 -22.35248726 1.31287238 -20.53710938 1.06079102 C-17.92669267 0.69878848 -15.31511898 0.34651037 -12.703125 -0.00390625 C-11.89256653 -0.11843643 -11.08200806 -0.23296661 -10.24688721 -0.35096741 C-6.53187972 -0.84034735 -3.59020571 -1.06787096 0 0 Z " fill="#F8E4D1" transform="translate(450,283)"/>
<path d="M0 0 C3.83723142 0.63604382 7.11996579 1.77403064 10.6875 3.3125 C16.09648118 5.61818714 21.53333706 7.83510472 27 10 C27 10.33 27 10.66 27 11 C21.07029617 11.49414199 16.99554426 10.99739381 11.82421875 7.97265625 C9.89940767 6.94636512 8.12761921 6.44618946 6 6 C5.67 6.99 5.34 7.98 5 9 C2.3534665 6.3534665 1.40058003 3.43778736 0 0 Z " fill="#AA6241" transform="translate(207,207)"/>
<path d="M0 0 C12.16355468 0.49265794 23.99236389 2.04383797 36 4 C36 4.33 36 4.66 36 5 C16.65957447 5.19148936 16.65957447 5.19148936 7 4 C7 3.34 7 2.68 7 2 C4.69 1.67 2.38 1.34 0 1 C0 0.67 0 0.34 0 0 Z " fill="#AF6943" transform="translate(376,255)"/>
<path d="M0 0 C-1.07401108 2.91517292 -1.77810176 4.77810176 -4 7 C-5.8125 7.5625 -5.8125 7.5625 -8 8 C-8.721875 8.165 -9.44375 8.33 -10.1875 8.5 C-14.10442382 9.19634201 -18.04373122 9.59489187 -22 10 C-18.34193269 6.88776996 -14.24429815 5.18449804 -9.875 3.3125 C-9.14667969 2.99216797 -8.41835937 2.67183594 -7.66796875 2.34179688 C-2.26535848 0 -2.26535848 0 0 0 Z " fill="#374853" transform="translate(175,38)"/>
<path d="M0 0 C2.97595467 2.55081829 4.44002566 5.43434437 6 9 C6 9.99 6 10.98 6 12 C-7.53 12 -21.06 12 -35 12 C-35 11.67 -35 11.34 -35 11 C-22.79 10.67 -10.58 10.34 2 10 C1.34 8.35 0.68 6.7 0 5 C-0.125 2.1875 -0.125 2.1875 0 0 Z " fill="#FFF1DA" transform="translate(227,248)"/>
<path d="M0 0 C-3.06941896 2.04627931 -5.91861534 3.2523446 -9.34765625 4.6015625 C-9.96015732 4.8428891 -10.57265839 5.0842157 -11.20372009 5.33285522 C-12.49491068 5.84051019 -13.78680311 6.34638325 -15.0793457 6.85058594 C-17.06084359 7.62435318 -19.03930739 8.40552433 -21.01757812 9.1875 C-22.27326255 9.68013367 -23.52911626 10.17233612 -24.78515625 10.6640625 C-25.92863525 11.11217285 -27.07211426 11.5602832 -28.25024414 12.02197266 C-31 13 -31 13 -33 13 C-32 10 -32 10 -29.75 8.8671875 C-28.8425 8.53976562 -27.935 8.21234375 -27 7.875 C-23.74148734 6.86260057 -23.74148734 6.86260057 -21 5 C-19.845 4.855625 -18.69 4.71125 -17.5 4.5625 C-16.345 4.376875 -15.19 4.19125 -14 4 C-13.67 3.34 -13.34 2.68 -13 2 C-8.56133639 0.0977156 -4.79708091 -0.19188324 0 0 Z " fill="#AA6440" transform="translate(289,306)"/>
<path d="M0 0 C-4.77487394 3.73685786 -9.27114636 6.10598144 -14.9609375 8.203125 C-16.96152846 8.82778982 -16.96152846 8.82778982 -18 10 C-19.51928038 10.07179964 -21.04167482 10.08392007 -22.5625 10.0625 C-23.38878906 10.05347656 -24.21507812 10.04445313 -25.06640625 10.03515625 C-25.70449219 10.02355469 -26.34257812 10.01195312 -27 10 C-23.39528589 6.39528589 -18.1930402 5.13945368 -13.5 3.3125 C-12.42878906 2.88388672 -11.35757813 2.45527344 -10.25390625 2.01367188 C-9.23167969 1.61341797 -8.20945313 1.21316406 -7.15625 0.80078125 C-6.21587891 0.43122314 -5.27550781 0.06166504 -4.30664062 -0.3190918 C-2 -1 -2 -1 0 0 Z " fill="#F7E6D4" transform="translate(258,320)"/>
<path d="M0 0 C0 0.33 0 0.66 0 1 C-1.39907593 1.16604736 -1.39907593 1.16604736 -2.82641602 1.33544922 C-6.31397153 1.75212614 -9.80083025 2.17392612 -13.28735352 2.59912109 C-14.79134036 2.781491 -16.29557075 2.96186468 -17.80004883 3.14013672 C-19.97285266 3.39796362 -22.14465522 3.66315463 -24.31640625 3.9296875 C-26.27235718 4.16534424 -26.27235718 4.16534424 -28.26782227 4.40576172 C-32.00458752 5.00073043 -35.39245819 5.88527571 -39 7 C-39 6.34 -39 5.68 -39 5 C-35.05272987 2.55948352 -30.75552561 2.07695596 -26.25 1.375 C-25.00029419 1.17716919 -25.00029419 1.17716919 -23.7253418 0.9753418 C-15.77548289 -0.19160305 -8.02244612 -0.29876696 0 0 Z " fill="#A76441" transform="translate(336,296)"/>
<path d="M0 0 C28.9906499 -0.63871689 28.9906499 -0.63871689 36 5 C23.94623425 3.98160251 11.95002719 2.91689856 0 1 C0 0.67 0 0.34 0 0 Z " fill="#F8E4D1" transform="translate(352,251)"/>
<path d="M0 0 C3.52082979 0.03806302 6.85343525 0.43318705 10.3125 1.125 C10.3125 1.455 10.3125 1.785 10.3125 2.125 C6.43827792 2.63115271 2.56301183 3.12882721 -1.3125 3.625 C-2.40691406 3.76808594 -3.50132812 3.91117187 -4.62890625 4.05859375 C-6.22412109 4.26162109 -6.22412109 4.26162109 -7.8515625 4.46875 C-8.82561035 4.59443359 -9.7996582 4.72011719 -10.80322266 4.84960938 C-13.78239105 5.13406019 -16.69665797 5.17155007 -19.6875 5.125 C-16.26161507 1.69911507 -12.62962212 1.14044462 -7.875 1.0625 C-6.823125 1.083125 -5.77125 1.10375 -4.6875 1.125 C-3.6875 0.125 -3.6875 0.125 0 0 Z " fill="#AE653A" transform="translate(435.6875,280.875)"/>
<path d="M0 0 C26.15429234 -0.5638051 26.15429234 -0.5638051 33 4 C21.91611166 3.47872802 10.99153812 2.52372601 0 1 C0 0.67 0 0.34 0 0 Z " fill="#F3D7C4" transform="translate(474,267)"/>
<path d="M0 0 C1.65 0.33 3.3 0.66 5 1 C4.60167969 1.72445312 4.20335938 2.44890625 3.79296875 3.1953125 C1.10994868 8.09133453 -1.55744288 12.97918814 -4 18 C-4.66 17.67 -5.32 17.34 -6 17 C-6.625 14.4375 -6.625 14.4375 -7 12 C-6.01 12.495 -6.01 12.495 -5 13 C-4.67 11.35 -4.34 9.7 -4 8 C-3.01 7.67 -2.02 7.34 -1 7 C-1 6.34 -1 5.68 -1 5 C-0.34 5 0.32 5 1 5 C0.67 3.35 0.34 1.7 0 0 Z " fill="#374751" transform="translate(73,155)"/>
<path d="M0 0 C1.32 0.66 2.64 1.32 4 2 C1.25 7.875 1.25 7.875 -1 9 C-1.65213292 11.02463255 -1.65213292 11.02463255 -2 13 C-2.66 13 -3.32 13 -4 13 C-4.66 14.65 -5.32 16.3 -6 18 C-6.66 18 -7.32 18 -8 18 C-6.65150163 13.64029169 -4.95092154 9.68658562 -2.875 5.625 C-2.33617187 4.56539063 -1.79734375 3.50578125 -1.2421875 2.4140625 C-0.83226562 1.61742187 -0.42234375 0.82078125 0 0 Z " fill="#B06540" transform="translate(233,286)"/>
<path d="M0 0 C2.1519437 3.22791555 2.20086443 4.28400809 2 8 C1.34 8 0.68 8 0 8 C-0.12375 8.556875 -0.2475 9.11375 -0.375 9.6875 C-1.85068731 15.14754305 -3.7891497 18.12158525 -8 22 C-5.60309494 14.55697903 -2.84737559 7.28162848 0 0 Z " fill="#3F4E55" transform="translate(292,494)"/>
<path d="M0 0 C1 2 1 2 1.375 4.8125 C2.02941334 8.15000805 3.18747747 10.16300821 5 13 C5 13.66 5 14.32 5 15 C5.66 15 6.32 15 7 15 C6.67 16.65 6.34 18.3 6 20 C2.99600559 16.46704136 0.79547138 12.97059208 -1.25 8.8125 C-1.77078125 7.76707031 -2.2915625 6.72164062 -2.828125 5.64453125 C-4 3 -4 3 -4 1 C-2.68 0.67 -1.36 0.34 0 0 Z " fill="#AA603B" transform="translate(229,241)"/>
<path d="M0 0 C-1 3 -1 3 -3.07421875 4.38671875 C-12.06748875 8.86318947 -12.06748875 8.86318947 -17 8 C-17.66 7.34 -18.32 6.68 -19 6 C-16.20964954 4.99619084 -13.41785145 3.9968055 -10.625 3 C-9.43390625 2.57074219 -9.43390625 2.57074219 -8.21875 2.1328125 C-7.45820313 1.86210937 -6.69765625 1.59140625 -5.9140625 1.3125 C-4.8614624 0.93544922 -4.8614624 0.93544922 -3.78759766 0.55078125 C-2 0 -2 0 0 0 Z " fill="#414F59" transform="translate(331,424)"/>
<path d="M0 0 C3.5420064 0.30872347 7.08353306 0.62265332 10.625 0.9375 C11.62402344 1.02451172 12.62304688 1.11152344 13.65234375 1.20117188 C18.47482126 1.63232053 23.23730947 2.09785214 28 3 C24.09971775 5.60018816 20.52565431 5.15085514 16 5 C16 4.34 16 3.68 16 3 C10.72 2.67 5.44 2.34 0 2 C0 1.34 0 0.68 0 0 Z " fill="#AD6741" transform="translate(416,260)"/>
<path d="M0 0 C0 1.32 0 2.64 0 4 C-10.55808656 0.92482916 -10.55808656 0.92482916 -15 -1 C-15 -1.33 -15 -1.66 -15 -2 C-9.28728072 -3.6112798 -5.31329355 -2.08989546 0 0 Z " fill="#F9E7D7" transform="translate(256,222)"/>
<path d="M0 0 C0 0.33 0 0.66 0 1 C-2.54194161 0.85811015 -5.08347993 0.71160845 -7.625 0.5625 C-8.69427734 0.50352539 -8.69427734 0.50352539 -9.78515625 0.44335938 C-13.91803682 0.19690319 -17.92269024 -0.23470053 -22 -1 C-15.16723711 -5.55517526 -7.03834457 -2.42303666 0 0 Z " fill="#F4D9C5" transform="translate(474,266)"/>
<path d="M0 0 C0.66 0 1.32 0 2 0 C2 0.66 2 1.32 2 2 C3.65 2.33 5.3 2.66 7 3 C7.99 5.97 8.98 8.94 10 12 C9.01 12 8.02 12 7 12 C5.17578125 9.8828125 5.17578125 9.8828125 3.3125 7.125 C2.37857422 5.76761719 2.37857422 5.76761719 1.42578125 4.3828125 C0 2 0 2 0 0 Z " fill="#3D4F57" transform="translate(440,135)"/>
<path d="M0 0 C2.79643618 3.42455876 4.74004289 7.18129771 6.6875 11.125 C7.00783203 11.75792969 7.32816406 12.39085937 7.65820312 13.04296875 C10 17.74653518 10 17.74653518 10 20 C9.34 20 8.68 20 8 20 C6.5393715 17.35261084 6 16.10551666 6 13 C5.01 12.67 4.02 12.34 3 12 C1.875 9 1.875 9 1 6 C0.67 5.67 0.34 5.34 0 5 C-0.04063832 3.33382885 -0.042721 1.66611905 0 0 Z " fill="#FEEBDB" transform="translate(217,228)"/>
<path d="M0 0 C0.33 0 0.66 0 1 0 C1 1.65 1 3.3 1 5 C2.423125 4.9690625 2.423125 4.9690625 3.875 4.9375 C7 5 7 5 9 6 C9 6.66 9 7.32 9 8 C6.03 8.66 3.06 9.32 0 10 C0 6.7 0 3.4 0 0 Z " fill="#48595F" transform="translate(15,240)"/>
<path d="M0 0 C0 3.93169105 -1.39419615 5.16427228 -4 8 C-4.66 8 -5.32 8 -6 8 C-6.66 9.32 -7.32 10.64 -8 12 C-8.66 12 -9.32 12 -10 12 C-10 12.66 -10 13.32 -10 14 C-11.65 14.33 -13.3 14.66 -15 15 C-12.06334264 10.96209613 -8.68524643 7.85773305 -4.90234375 4.6484375 C-3.18778129 3.16271808 -1.58115759 1.62548911 0 0 Z " fill="#DDE5E8" transform="translate(401,409)"/>
<path d="M0 0 C4.51617599 -0.07654536 8.59085217 -0.10228696 13 1 C13 1.66 13 2.32 13 3 C12.34 3 11.68 3 11 3 C10.34 4.65 9.68 6.3 9 8 C7.68 7.34 6.36 6.68 5 6 C5 4.68 5 3.36 5 2 C3.35 1.67 1.7 1.34 0 1 C0 0.67 0 0.34 0 0 Z " fill="#E5D7CC" transform="translate(507,271)"/>
<path d="M0 0 C-3.14465451 4.28816524 -6.6075881 4.85662883 -11.5625 5.80078125 C-14.01936573 6.00158278 -15.65121998 5.65143885 -18 5 C-15.37831689 3.96983978 -12.75326119 2.95061606 -10.125 1.9375 C-9.37863281 1.64294922 -8.63226563 1.34839844 -7.86328125 1.04492188 C-2.2265625 -1.11328125 -2.2265625 -1.11328125 0 0 Z " fill="#F8E3D1" transform="translate(296,305)"/>
<path d="M0 0 C8.61738853 -0.30654742 15.93475404 -0.39589303 24 3 C20.82978983 3.99626083 18.5026511 3.96516845 15.234375 3.44140625 C13.90019531 3.23354492 13.90019531 3.23354492 12.5390625 3.02148438 C11.61867188 2.87001953 10.69828125 2.71855469 9.75 2.5625 C8.81414062 2.41490234 7.87828125 2.26730469 6.9140625 2.11523438 C4.60815669 1.75052478 2.30366712 1.37855026 0 1 C0 0.67 0 0.34 0 0 Z " fill="#F7DCC8" transform="translate(392,256)"/>
<path d="M0 0 C2.62689244 2.62689244 3.99893642 5.70821274 5.625 9 C5.94984375 9.64195312 6.2746875 10.28390625 6.609375 10.9453125 C9 15.74665179 9 15.74665179 9 18 C6 17 6 17 4.39453125 14.19921875 C3.87246094 13.04035156 3.35039062 11.88148438 2.8125 10.6875 C2.28269531 9.53636719 1.75289062 8.38523438 1.20703125 7.19921875 C0 4 0 4 0 0 Z " fill="#F6E3D1" transform="translate(208,209)"/>
<path d="M0 0 C0.66 0.33 1.32 0.66 2 1 C0.35 4.63 -1.3 8.26 -3 12 C-1.68 11.67 -0.36 11.34 1 11 C1 11.66 1 12.32 1 13 C-0.65 13 -2.3 13 -4 13 C-4 10.03 -4 7.06 -4 4 C-2.68 3.67 -1.36 3.34 0 3 C0 2.01 0 1.02 0 0 Z " fill="#F8E9D9" transform="translate(211,327)"/>
<path d="M0 0 C0 0.33 0 0.66 0 1 C-2.31 1 -4.62 1 -7 1 C-7 1.66 -7 2.32 -7 3 C-12.94 3 -18.88 3 -25 3 C-25 2.67 -25 2.34 -25 2 C-8.29157175 -0.29612756 -8.29157175 -0.29612756 0 0 Z " fill="#F6DCC7" transform="translate(385,291)"/>
<path d="M0 0 C2.91517292 1.07401108 4.77810176 1.77810176 7 4 C6.34 5.32 5.68 6.64 5 8 C2.5625 7.3125 2.5625 7.3125 0 6 C-0.875 3.4375 -0.875 3.4375 -1 1 C-0.67 0.67 -0.34 0.34 0 0 Z " fill="#3B4F5A" transform="translate(139,455)"/>
<path d="M0 0 C0.66 0.66 1.32 1.32 2 2 C0.7934375 2.8971875 0.7934375 2.8971875 -0.4375 3.8125 C-3.22327984 5.80947276 -3.22327984 5.80947276 -4 9 C-4.66 9 -5.32 9 -6 9 C-6 9.66 -6 10.32 -6 11 C-6.66 11 -7.32 11 -8 11 C-8.33 11.99 -8.66 12.98 -9 14 C-9.66 13.01 -10.32 12.02 -11 11 C-7.37 7.37 -3.74 3.74 0 0 Z " fill="#404F58" transform="translate(388,382)"/>
<path d="M0 0 C0.33 0.66 0.66 1.32 1 2 C1.99 2.33 2.98 2.66 4 3 C0 9.57142857 0 9.57142857 -4 11 C-2.7874262 7.27566618 -1.49140021 3.62197194 0 0 Z " fill="#3E4B56" transform="translate(418,334)"/>
<path d="M0 0 C4.29 0 8.58 0 13 0 C9.36997711 3.63002289 4.51155044 3.05557854 -0.375 3.0625 C-1.91672526 3.04658248 -3.4584364 3.02741912 -5 3 C-5 2.67 -5 2.34 -5 2 C-3.35 2 -1.7 2 0 2 C0 1.34 0 0.68 0 0 Z " fill="#A05E3E" transform="translate(501,272)"/>
<path d="M0 0 C2.97 0.495 2.97 0.495 6 1 C6.33 1.99 6.66 2.98 7 4 C4.1875 5.125 4.1875 5.125 1 6 C0.01 5.34 -0.98 4.68 -2 4 C-1.34 2.68 -0.68 1.36 0 0 Z " fill="#2C404B" transform="translate(339,96)"/>
<path d="M0 0 C1.79068573 2.6860286 2.66055791 4.6626589 3.625 7.6875 C3.88539063 8.49574219 4.14578125 9.30398438 4.4140625 10.13671875 C4.60742188 10.75160156 4.80078125 11.36648438 5 12 C3.35 11.67 1.7 11.34 0 11 C-0.33 9.68 -0.66 8.36 -1 7 C-0.34 7 0.32 7 1 7 C0.67 4.69 0.34 2.38 0 0 Z " fill="#405059" transform="translate(242,501)"/>
<path d="M0 0 C1.9375 0.375 1.9375 0.375 4 1 C4.33 1.66 4.66 2.32 5 3 C6.90178785 3.60061233 6.90178785 3.60061233 9 4 C9.99 4.33 10.98 4.66 12 5 C11.67 5.99 11.34 6.98 11 8 C6.69235185 6.43358249 2.93828536 4.31663844 -1 2 C-0.67 1.34 -0.34 0.68 0 0 Z " fill="#43535B" transform="translate(167,436)"/>
<path d="M0 0 C2.97595467 2.55081829 4.44002566 5.43434437 6 9 C6 9.99 6 10.98 6 12 C3.03 11.505 3.03 11.505 0 11 C0.66 10.67 1.32 10.34 2 10 C1.505 8.9171875 1.505 8.9171875 1 7.8125 C-0.00603529 4.98302573 -0.16977402 2.97104534 0 0 Z " fill="#F9E5D4" transform="translate(227,248)"/>
<path d="M0 0 C1.9375 0.3125 1.9375 0.3125 4 1 C4.33 1.99 4.66 2.98 5 4 C1.535 5.485 1.535 5.485 -2 7 C-2 6.34 -2 5.68 -2 5 C-2.66 4.67 -3.32 4.34 -4 4 C-3.01 3.67 -2.02 3.34 -1 3 C-0.67 2.01 -0.34 1.02 0 0 Z " fill="#3A4C57" transform="translate(369,497)"/>
<path d="M0 0 C0.66 0.33 1.32 0.66 2 1 C-0.85276137 3.93200474 -3.65079784 6.64315404 -7 9 C-8.32 8.01 -9.64 7.02 -11 6 C-9.21385682 4.96953278 -7.42089982 3.95086764 -5.625 2.9375 C-4.62726563 2.36902344 -3.62953125 1.80054688 -2.6015625 1.21484375 C-1.74304688 0.81394531 -0.88453125 0.41304688 0 0 Z " fill="#E6ECF0" transform="translate(364,438)"/>
<path d="M0 0 C0.66 0.66 1.32 1.32 2 2 C0.71186658 2.83878455 -0.58063256 3.67086783 -1.875 4.5 C-2.59429687 4.9640625 -3.31359375 5.428125 -4.0546875 5.90625 C-6 7 -6 7 -8 7 C-7.67 5.02 -7.34 3.04 -7 1 C-3.625 0.375 -3.625 0.375 0 0 Z " fill="#43525C" transform="translate(369,433)"/>
<path d="M0 0 C0.99 0.99 1.98 1.98 3 3 C2.38125 3.9075 1.7625 4.815 1.125 5.75 C-0.44389611 8.14948817 -1.80443821 10.40961612 -3 13 C-3.66 13 -4.32 13 -5 13 C-4.54554036 11.58208592 -4.08625056 10.16571954 -3.625 8.75 C-3.24214844 7.56664062 -3.24214844 7.56664062 -2.8515625 6.359375 C-2.04826333 4.13372042 -1.10288338 2.09068328 0 0 Z " fill="#42515A" transform="translate(471,356)"/>
<path d="M0 0 C6.20970773 -0.33266291 10.28264895 0.54970669 16 3 C16 3.33 16 3.66 16 4 C9.80112515 4.37952295 5.5522888 3.8352113 0 1 C0 0.67 0 0.34 0 0 Z " fill="#B1613B" transform="translate(218,214)"/>
<path d="M0 0 C1.65 0 3.3 0 5 0 C5.66 1.98 6.32 3.96 7 6 C4.36 6 1.72 6 -1 6 C-0.649375 5.38125 -0.29875 4.7625 0.0625 4.125 C0.371875 3.42375 0.68125 2.7225 1 2 C0.67 1.34 0.34 0.68 0 0 Z " fill="#4C5C5F" transform="translate(245,519)"/>
<path d="M0 0 C0 1.98 0 3.96 0 6 C-0.66 6 -1.32 6 -2 6 C-2.33 6.66 -2.66 7.32 -3 8 C-4.32 6.35 -5.64 4.7 -7 3 C-2.25 0 -2.25 0 0 0 Z " fill="#47555D" transform="translate(106,458)"/>
<path d="M0 0 C1.75 0.0625 1.75 0.0625 4 1 C5.59501537 3.24164322 6.74543018 5.53566643 8 8 C5.00667261 7.0022242 4.05233685 6.2477975 2 4 C1.67 4.99 1.34 5.98 1 7 C-1 4 -1 4 -0.625 1.8125 C-0.41875 1.214375 -0.2125 0.61625 0 0 Z " fill="#3C4C56" transform="translate(419,160)"/>
<path d="M0 0 C0.33 0 0.66 0 1 0 C1 1.65 1 3.3 1 5 C0.34 5 -0.32 5 -1 5 C-1.66 7.31 -2.32 9.62 -3 12 C-3.66 12 -4.32 12 -5 12 C-5.33 12.99 -5.66 13.98 -6 15 C-6.66 14.67 -7.32 14.34 -8 14 C-5.36 9.38 -2.72 4.76 0 0 Z " fill="#3F4E55" transform="translate(463,373)"/>
<path d="M0 0 C3.84505643 1.28168548 4.21363291 2.42726581 6 6 C6.72166191 8.31691454 7.40059529 10.64848923 8 13 C7.01 13.495 7.01 13.495 6 14 C4.02 9.38 2.04 4.76 0 0 Z " fill="#AB663F" transform="translate(212,216)"/>
<path d="M0 0 C0.66 0 1.32 0 2 0 C2.86375896 1.61992165 3.71575854 3.24611861 4.5625 4.875 C5.03816406 5.77992188 5.51382812 6.68484375 6.00390625 7.6171875 C6.33261719 8.40351563 6.66132813 9.18984375 7 10 C6.67 10.66 6.34 11.32 6 12 C2.06153846 8.67692308 2.06153846 8.67692308 1.75 5.25 C1.87375 4.13625 1.87375 4.13625 2 3 C1.01 2.67 0.02 2.34 -1 2 C-0.67 1.34 -0.34 0.68 0 0 Z " fill="#49565D" transform="translate(488,156)"/>
<path d="M0 0 C-0.59646305 3.34019306 -1.68294159 5.50470633 -4 8 C-4.99 8 -5.98 8 -7 8 C-6.67 6.68 -6.34 5.36 -6 4 C-5.34 4 -4.68 4 -4 4 C-4 3.01 -4 2.02 -4 1 C-2 0 -2 0 0 0 Z " fill="#2E404B" transform="translate(362,407)"/>
<path d="M0 0 C0.66 0.99 1.32 1.98 2 3 C1.2884375 3.6496875 1.2884375 3.6496875 0.5625 4.3125 C-1.23686957 6.02309613 -1.23686957 6.02309613 -2 9 C-2.66 9 -3.32 9 -4 9 C-4.33 9.66 -4.66 10.32 -5 11 C-5.68359375 9.234375 -5.68359375 9.234375 -6 7 C-4.78515625 5.078125 -4.78515625 5.078125 -3.0625 3.25 C-2.49660156 2.63640625 -1.93070312 2.0228125 -1.34765625 1.390625 C-0.90292969 0.93171875 -0.45820313 0.4728125 0 0 Z " fill="#2D404C" transform="translate(458,385)"/>
<path d="M0 0 C-1.75 5.75 -1.75 5.75 -4 8 C-5.32 7.34 -6.64 6.68 -8 6 C-3.375 0 -3.375 0 0 0 Z " fill="#2D3F4C" transform="translate(392,382)"/>
<path d="M0 0 C0.33 0.66 0.66 1.32 1 2 C0.10333658 4.24310013 -0.89146683 6.44754321 -1.9375 8.625 C-2.50339844 9.81351562 -3.06929687 11.00203125 -3.65234375 12.2265625 C-4.09707031 13.14179688 -4.54179687 14.05703125 -5 15 C-5.89234179 12.51053693 -6.08442558 11.27333365 -5.29296875 8.7109375 C-4.92816406 7.94007813 -4.56335938 7.16921875 -4.1875 6.375 C-3.83042969 5.59898437 -3.47335938 4.82296875 -3.10546875 4.0234375 C-2 2 -2 2 0 0 Z " fill="#FAE5D2" transform="translate(220,310)"/>
<path d="M0 0 C5.19591612 0.44033187 8.66335081 0.88303339 13 4 C9.83977452 5.39049921 8.72985675 4.90218951 5.375 3.6875 C2 2 2 2 0 0 Z " fill="#A65E37" transform="translate(256,228)"/>
<path d="M0 0 C0.66 0.33 1.32 0.66 2 1 C1.0625 2.9375 1.0625 2.9375 -1 5 C-3.9858081 5.66174825 -6.94861869 5.87205948 -10 6 C-6.87511433 3.47605388 -3.68685613 1.60298093 0 0 Z " fill="#4B5760" transform="translate(163,42)"/>
<path d="M0 0 C-5.16216577 3.75430238 -8.56014376 5.67081836 -15 5 C-12.30932731 3.20621821 -9.91421743 2.02686042 -6.9375 0.8125 C-5.62072266 0.26529297 -5.62072266 0.26529297 -4.27734375 -0.29296875 C-2 -1 -2 -1 0 0 Z " fill="#F4D9C6" transform="translate(278,312)"/>
<path d="M0 0 C0.66 0 1.32 0 2 0 C2.33 1.65 2.66 3.3 3 5 C4.65 5.33 6.3 5.66 8 6 C5 8 5 8 3 8 C2.34 8.99 1.68 9.98 1 11 C0.67 7.37 0.34 3.74 0 0 Z " fill="#515F66" transform="translate(14,295)"/>
<path d="M0 0 C0.66 1.32 1.32 2.64 2 4 C-1.75 5.125 -1.75 5.125 -4 4 C-2.68 2.68 -1.36 1.36 0 0 Z M-6 5 C-5.34 5.33 -4.68 5.66 -4 6 C-5.32 7.32 -6.64 8.64 -8 10 C-8.66 9.67 -9.32 9.34 -10 9 C-8.68 7.68 -7.36 6.36 -6 5 Z " fill="#41545D" transform="translate(142,125)"/>
<path d="M0 0 C2.97 0.495 2.97 0.495 6 1 C2.58983503 3.86453858 -0.90694544 5.34703566 -5 7 C-4.67 5.68 -4.34 4.36 -4 3 C-2.68 3 -1.36 3 0 3 C0 2.01 0 1.02 0 0 Z " fill="#404F56" transform="translate(170,69)"/>
<path d="M0 0 C1.2065625 0.0309375 1.2065625 0.0309375 2.4375 0.0625 C2.4375 1.0525 2.4375 2.0425 2.4375 3.0625 C-0.0625 4.75 -0.0625 4.75 -2.5625 6.0625 C-2.94468767 4.40635343 -3.27645102 2.73792976 -3.5625 1.0625 C-2.5625 0.0625 -2.5625 0.0625 0 0 Z " fill="#3C4C57" transform="translate(413.5625,472.9375)"/>
<path d="M0 0 C0.66 0.66 1.32 1.32 2 2 C1.01 2 0.02 2 -1 2 C-1.33 3.65 -1.66 5.3 -2 7 C-4.31 6.67 -6.62 6.34 -9 6 C-6.11912454 3.59927045 -3.43595166 1.52708963 0 0 Z " fill="#3D4B55" transform="translate(380,462)"/>
<path d="M0 0 C0 3.3 0 6.6 0 10 C-0.33 10 -0.66 10 -1 10 C-1 8.35 -1 6.7 -1 5 C-1.66 5 -2.32 5 -3 5 C-3.33 4.34 -3.66 3.68 -4 3 C-4.99 2.34 -5.98 1.68 -7 1 C-4.50935112 0.31292445 -2.62113708 0 0 0 Z " fill="#545E64" transform="translate(517,296)"/>
<path d="M0 0 C0.88300781 0.19464844 1.76601563 0.38929688 2.67578125 0.58984375 C3.67158203 0.82380859 3.67158203 0.82380859 4.6875 1.0625 C4.6875 1.3925 4.6875 1.7225 4.6875 2.0625 C2.75030622 2.11656122 0.81268079 2.15532025 -1.125 2.1875 C-2.20394531 2.21070313 -3.28289062 2.23390625 -4.39453125 2.2578125 C-7.3125 2.0625 -7.3125 2.0625 -10.3125 0.0625 C-6.51681539 -0.91548721 -3.8119001 -0.86403069 0 0 Z " fill="#FEF1E1" transform="translate(423.3125,257.9375)"/>
<path d="M0 0 C2.27912938 0.45394552 2.27912938 0.45394552 4.6875 0.625 C5.49574219 0.69976562 6.30398438 0.77453125 7.13671875 0.8515625 C7.75160156 0.90054688 8.36648438 0.94953125 9 1 C9 1.33 9 1.66 9 2 C2.59646678 2.2361959 -2.84629161 1.823321 -9 0 C-9 -0.33 -9 -0.66 -9 -1 C-3.375 -2.25 -3.375 -2.25 0 0 Z " fill="#FDFAED" transform="translate(337,247)"/>
<path d="M0 0 C8.97478992 -0.29915966 8.97478992 -0.29915966 12 2 C12.33 2.99 12.66 3.98 13 5 C11.39402675 4.54803755 9.79027492 4.08817673 8.1875 3.625 C6.84751953 3.24214844 6.84751953 3.24214844 5.48046875 2.8515625 C3 2 3 2 0 0 Z " fill="#F8E1D1" transform="translate(273,233)"/>
<path d="M0 0 C4.29 0.33 8.58 0.66 13 1 C13 2.32 13 3.64 13 5 C11.39402675 4.54803755 9.79027492 4.08817673 8.1875 3.625 C6.84751953 3.24214844 6.84751953 3.24214844 5.48046875 2.8515625 C3 2 3 2 0 0 Z " fill="#F5E3CF" transform="translate(213,209)"/>
<path d="M0 0 C0.33 0.66 0.66 1.32 1 2 C-3.95 3.485 -3.95 3.485 -9 5 C-6.40100021 -0.19799959 -5.44050551 -0.1431712 0 0 Z " fill="#EFF7F8" transform="translate(336,481)"/>
<path d="M0 0 C-1.20381448 2.49361571 -2.45428722 4.68143083 -4 7 C-5.32 5.35 -6.64 3.7 -8 2 C-2.25 0 -2.25 0 0 0 Z " fill="#485964" transform="translate(140,409)"/>
<path d="M0 0 C0.66 0 1.32 0 2 0 C3.38938077 1.96147874 4.7260411 3.96166576 6 6 C5.34 7.32 4.68 8.64 4 10 C3.32845067 8.71086513 2.66291141 7.41859796 2 6.125 C1.62875 5.40570313 1.2575 4.68640625 0.875 3.9453125 C0 2 0 2 0 0 Z " fill="#AC6346" transform="translate(219,230)"/>
<path d="M0 0 C0.66 0.33 1.32 0.66 2 1 C1.67 1.66 1.34 2.32 1 3 C1.66 3 2.32 3 3 3 C3 2.34 3 1.68 3 1 C4.32 1.33 5.64 1.66 7 2 C2.56923077 5.07692308 2.56923077 5.07692308 -0.3125 4.6875 C-0.869375 4.460625 -1.42625 4.23375 -2 4 C-2 3.01 -2 2.02 -2 1 C-1.34 0.67 -0.68 0.34 0 0 Z " fill="#2F3D45" transform="translate(402,93)"/>
<path d="M0 0 C1.65 0 3.3 0 5 0 C5 3.51716303 4.17554415 4.37121748 2 7 C0.5393715 4.35261084 0 3.10551666 0 0 Z " fill="#404B54" transform="translate(281,21)"/>
<path d="M0 0 C1.65 0.33 3.3 0.66 5 1 C3.68 3.64 2.36 6.28 1 9 C0.34 7.68 -0.32 6.36 -1 5 C-0.34 5 0.32 5 1 5 C0.67 3.35 0.34 1.7 0 0 Z " fill="#43515A" transform="translate(73,155)"/>
<path d="M0 0 C0.66 0.33 1.32 0.66 2 1 C0.73299277 1.9841125 -0.5387619 2.96211497 -1.8125 3.9375 C-2.87404297 4.75541016 -2.87404297 4.75541016 -3.95703125 5.58984375 C-6 7 -6 7 -9 8 C-9.33 7.34 -9.66 6.68 -10 6 C-8.3811004 4.96951963 -6.75467511 3.95085322 -5.125 2.9375 C-4.22007812 2.36902344 -3.31515625 1.80054687 -2.3828125 1.21484375 C-1.20332031 0.61349609 -1.20332031 0.61349609 0 0 Z " fill="#E1EAEC" transform="translate(158,79)"/>
<path d="M0 0 C0.99 0.33 1.98 0.66 3 1 C3.73046875 2.84765625 3.73046875 2.84765625 4.1875 5.0625 C4.34605469 5.79597656 4.50460938 6.52945312 4.66796875 7.28515625 C4.83232422 8.13400391 4.83232422 8.13400391 5 9 C3.68 8.34 2.36 7.68 1 7 C1.33 5.68 1.66 4.36 2 3 C1.34 3 0.68 3 0 3 C0 2.01 0 1.02 0 0 Z " fill="#2D3F4B" transform="translate(121,394)"/>
<path d="M0 0 C1.65 1.65 3.3 3.3 5 5 C3.68 5.33 2.36 5.66 1 6 C0.67 5.34 0.34 4.68 0 4 C-0.99 4.33 -1.98 4.66 -3 5 C-1.125 1.125 -1.125 1.125 0 0 Z " fill="#3F525B" transform="translate(128,363)"/>
<path d="M0 0 C2.31 0 4.62 0 7 0 C5.68 0.33 4.36 0.66 3 1 C3.33 2.65 3.66 4.3 4 6 C2.68 5.67 1.36 5.34 0 5 C0 3.35 0 1.7 0 0 Z " fill="#2C3A48" transform="translate(427,306)"/>
<path d="M0 0 C2.64 0.66 5.28 1.32 8 2 C6.68 2.33 5.36 2.66 4 3 C4 3.66 4 4.32 4 5 C2.68 4.67 1.36 4.34 0 4 C0 2.68 0 1.36 0 0 Z " fill="#3B4A55" transform="translate(16,296)"/>
<path d="M0 0 C2.64 0 5.28 0 8 0 C8.33 0.99 8.66 1.98 9 3 C5.23375329 4.25541557 3.62811066 3.37061958 0 2 C0 1.34 0 0.68 0 0 Z " fill="#4A555D" transform="translate(504,245)"/>
<path d="M0 0 C0.33 0 0.66 0 1 0 C1 1.98 1 3.96 1 6 C-1.97 6 -4.94 6 -8 6 C-5.07735566 4.53867783 -3.07536854 3.65900754 0 3 C0 2.01 0 1.02 0 0 Z " fill="#49545C" transform="translate(455,237)"/>
<path d="M0 0 C1.85776765 3.13498292 2.20140476 5.37471432 2 9 C1.01 9.495 1.01 9.495 0 10 C-1.125 3.375 -1.125 3.375 0 0 Z " fill="#3F5058" transform="translate(79,223)"/>
<path d="M0 0 C2.475 0.495 2.475 0.495 5 1 C5.33 2.32 5.66 3.64 6 5 C5.01 5.66 4.02 6.32 3 7 C2.01 4.69 1.02 2.38 0 0 Z " fill="#A6745D" transform="translate(207,207)"/>
<path d="M0 0 C1.32 1.32 2.64 2.64 4 4 C3.01 4.495 3.01 4.495 2 5 C2 5.66 2 6.32 2 7 C1.34 7 0.68 7 0 7 C0 6.34 0 5.68 0 5 C-0.66 4.67 -1.32 4.34 -2 4 C-1.34 2.68 -0.68 1.36 0 0 Z " fill="#3E505A" transform="translate(76,388)"/>
<path d="M0 0 C3.99996286 1.33332095 4.83782337 3.4957827 7 7 C6.01 7.495 6.01 7.495 5 8 C4.34 7.34 3.68 6.68 3 6 C2.34 5.67 1.68 5.34 1 5 C0.375 2.4375 0.375 2.4375 0 0 Z " fill="#3C474F" transform="translate(132,370)"/>
<path d="M0 0 C0.66 0.33 1.32 0.66 2 1 C1.01 2.485 1.01 2.485 0 4 C-1.9453125 4.29296875 -1.9453125 4.29296875 -4.125 4.1875 C-5.40375 4.125625 -6.6825 4.06375 -8 4 C-5.31143836 2.20762558 -3.0466145 1.01553817 0 0 Z " fill="#FAE7D3" transform="translate(229,330)"/>
<path d="M0 0 C1.32 0.33 2.64 0.66 4 1 C4 2.65 4 4.3 4 6 C3.01 6 2.02 6 1 6 C0.67 4.02 0.34 2.04 0 0 Z " fill="#E9F1F4" transform="translate(104,303)"/>
<path d="M0 0 C1.64666203 0.1135629 3.29236082 0.24117381 4.9375 0.375 C5.85402344 0.44460937 6.77054687 0.51421875 7.71484375 0.5859375 C8.84599609 0.79089844 8.84599609 0.79089844 10 1 C10.33 1.66 10.66 2.32 11 3 C8.83032311 3.95465783 7.43671207 4.14401212 5.17578125 3.3984375 C3.4315257 2.64129615 1.71372869 1.82390802 0 1 C0 0.67 0 0.34 0 0 Z " fill="#F2DAC6" transform="translate(294,241)"/>
<path d="M0 0 C0.66 1.32 1.32 2.64 2 4 C0.68 5.32 -0.64 6.64 -2 8 C-2.6875 6.25 -2.6875 6.25 -3 4 C-1.5625 1.75 -1.5625 1.75 0 0 Z " fill="#3A4D54" transform="translate(87,137)"/>
<path d="M0 0 C2.97 1.65 5.94 3.3 9 5 C8.34 5.66 7.68 6.32 7 7 C4.0625 5.75 4.0625 5.75 1 4 C0.67 2.68 0.34 1.36 0 0 Z " fill="#3C4C55" transform="translate(368,110)"/>
<path d="M0 0 C2.62187494 1.04874998 3.79371361 1.64931313 5.25 4.125 C5.4975 4.74375 5.745 5.3625 6 6 C3.03 5.505 3.03 5.505 0 5 C-0.33 4.01 -0.66 3.02 -1 2 C-0.67 1.34 -0.34 0.68 0 0 Z " fill="#424F55" transform="translate(453,106)"/>
<path d="M0 0 C0.33 0.66 0.66 1.32 1 2 C1.66 2.33 2.32 2.66 3 3 C2.01 4.485 2.01 4.485 1 6 C0.67 5.67 0.34 5.34 0 5 C-0.66 5.66 -1.32 6.32 -2 7 C-2.33 6.01 -2.66 5.02 -3 4 C-1.5625 1.8125 -1.5625 1.8125 0 0 Z " fill="#3B4E5A" transform="translate(245,29)"/>
<path d="M0 0 C3.3 0 6.6 0 10 0 C9.34 1.98 8.68 3.96 8 6 C7.67 6 7.34 6 7 6 C7 4.35 7 2.7 7 1 C4.69 1 2.38 1 0 1 C0 0.67 0 0.34 0 0 Z " fill="#FDE8D2" transform="translate(223,286)"/>
<path d="M0 0 C6.93 0.495 6.93 0.495 14 1 C14 1.33 14 1.66 14 2 C4.58997722 3.51708428 4.58997722 3.51708428 0 1 C0 0.67 0 0.34 0 0 Z " fill="#BC5E2E" transform="translate(473,269)"/>
<path d="M0 0 C0.33 0.66 0.66 1.32 1 2 C0.0625 4.625 0.0625 4.625 -1 7 C-4 3.25 -4 3.25 -4 1 C-2.68 0.67 -1.36 0.34 0 0 Z " fill="#B46840" transform="translate(229,241)"/>
<path d="M0 0 C6.75 -0.125 6.75 -0.125 9 1 C9 1.99 9 2.98 9 4 C6.03 3.01 3.06 2.02 0 1 C0 0.67 0 0.34 0 0 Z " fill="#F7E2D0" transform="translate(231,216)"/>
<path d="M0 0 C0.33 1.32 0.66 2.64 1 4 C-2 6 -2 6 -4 6 C-4.33 5.01 -4.66 4.02 -5 3 C-3.35 2.01 -1.7 1.02 0 0 Z " fill="#3D515B" transform="translate(174,103)"/>
<path d="M0 0 C0 1.66666667 0 3.33333333 0 5 C-2.31 5.33 -4.62 5.66 -7 6 C-4.74259377 3.66475218 -2.7194239 1.81294927 0 0 Z " fill="#3F505A" transform="translate(123,65)"/>
<path d="M0 0 C2 1 2 1 3 3 C2.01 3 1.02 3 0 3 C-0.33 3.99 -0.66 4.98 -1 6 C-2.32 5.01 -3.64 4.02 -5 3 C-2.625 1.4375 -2.625 1.4375 0 0 Z " fill="#F1F6F6" transform="translate(393,49)"/>
<path d="M0 0 C2.475 0.99 2.475 0.99 5 2 C3.68 3.32 2.36 4.64 1 6 C0.34 5.34 -0.32 4.68 -1 4 C-0.625 1.875 -0.625 1.875 0 0 Z " fill="#47535A" transform="translate(428,459)"/>
<path d="M0 0 C-0.66 1.32 -1.32 2.64 -2 4 C-3.65 3.67 -5.3 3.34 -7 3 C-6.67 2.01 -6.34 1.02 -6 0 C-3 -1 -3 -1 0 0 Z " fill="#2D3D49" transform="translate(370,404)"/>
<path d="M0 0 C-0.33 1.32 -0.66 2.64 -1 4 C-4 4 -4 4 -6 3 C-6 2.34 -6 1.68 -6 1 C-3.92446352 0.4465236 -2.15634036 0 0 0 Z " fill="#404E59" transform="translate(424,381)"/>
<path d="M0 0 C0.66 0.33 1.32 0.66 2 1 C0.68 3.64 -0.64 6.28 -2 9 C-2.66 7.68 -3.32 6.36 -4 5 C-2.68 3.35 -1.36 1.7 0 0 Z " fill="#E9F2F3" transform="translate(464,368)"/>
<path d="M0 0 C2 3.75 2 3.75 2 6 C0.02 6.99 0.02 6.99 -2 8 C-1.125 1.125 -1.125 1.125 0 0 Z " fill="#2C3C43" transform="translate(484,320)"/>
<path d="M0 0 C0.8353125 0.37125 0.8353125 0.37125 1.6875 0.75 C-0.67218744 2.84749995 -1.85866994 3.71905704 -5.0625 3.9375 C-6.17625 3.8446875 -6.17625 3.8446875 -7.3125 3.75 C-2.88173077 -0.31153846 -2.88173077 -0.31153846 0 0 Z " fill="#A85A32" transform="translate(270.3125,311.25)"/>
<path d="M0 0 C6.75 0.75 6.75 0.75 9 3 C6.03 2.67 3.06 2.34 0 2 C0 1.34 0 0.68 0 0 Z " fill="#A95A36" transform="translate(289,241)"/>
<path d="M0 0 C0.66 0.33 1.32 0.66 2 1 C-0.475 4.465 -0.475 4.465 -3 8 C-3.33 6.68 -3.66 5.36 -4 4 C-2.0625 1.75 -2.0625 1.75 0 0 Z " fill="#E7F0F2" transform="translate(112,154)"/>
<path d="M0 0 C2.475 0.99 2.475 0.99 5 2 C5 2.99 5 3.98 5 5 C3.35 5 1.7 5 0 5 C0 3.35 0 1.7 0 0 Z " fill="#2B3C49" transform="translate(409,148)"/>
<path d="M0 0 C6.875 3.75 6.875 3.75 8 6 C5.6875 6.25 5.6875 6.25 3 6 C1.02389614 3.95575462 0 2.8823175 0 0 Z " fill="#E5ECEF" transform="translate(360,139)"/>
<path d="M0 0 C-4.75 4 -4.75 4 -7 4 C-7 3.01 -7 2.02 -7 1 C-3.375 -1.125 -3.375 -1.125 0 0 Z " fill="#414D56" transform="translate(395,489)"/>
<path d="M0 0 C0.99 0.33 1.98 0.66 3 1 C0.6875 3.5 0.6875 3.5 -2 6 C-2.99 6 -3.98 6 -5 6 C-5 5.34 -5 4.68 -5 4 C-4.34 4 -3.68 4 -3 4 C-2.67 3.01 -2.34 2.02 -2 1 C-1.34 0.67 -0.68 0.34 0 0 Z " fill="#2D3E4A" transform="translate(366,470)"/>
<path d="M0 0 C1.32 0.33 2.64 0.66 4 1 C4 1.66 4 2.32 4 3 C4.66 3 5.32 3 6 3 C5.67 3.99 5.34 4.98 5 6 C3.2925002 4.71937515 1.62626404 3.38232443 0 2 C0 1.34 0 0.68 0 0 Z " fill="#3F4C56" transform="translate(117,394)"/>
<path d="M0 0 C1.32 0 2.64 0 4 0 C3.6875 1.9375 3.6875 1.9375 3 4 C2.01 4.33 1.02 4.66 0 5 C-0.5625 3.0625 -0.5625 3.0625 -1 1 C-0.67 0.67 -0.34 0.34 0 0 Z " fill="#47545D" transform="translate(43,305)"/>
<path d="M0 0 C1.98 0 3.96 0 6 0 C5.67 0.99 5.34 1.98 5 3 C3.35 3.33 1.7 3.66 0 4 C0 2.68 0 1.36 0 0 Z " fill="#334246" transform="translate(15,246)"/>
<path d="M0 0 C1.5 1.375 1.5 1.375 3 3 C3 3.66 3 4.32 3 5 C1.68 5 0.36 5 -1 5 C-1.33 5.66 -1.66 6.32 -2 7 C-2 5.68 -2 4.36 -2 3 C-1.34 3 -0.68 3 0 3 C0 2.01 0 1.02 0 0 Z " fill="#2C3E49" transform="translate(82,218)"/>
<path d="M0 0 C0.66 0.33 1.32 0.66 2 1 C2 3.64 2 6.28 2 9 C-0.57781906 6.42218094 -0.62129616 4.5598161 -1 1 C-0.67 0.67 -0.34 0.34 0 0 Z " fill="#2D3E47" transform="translate(476,196)"/>
<path d="M0 0 C-0.3125 1.9375 -0.3125 1.9375 -1 4 C-1.99 4.33 -2.98 4.66 -4 5 C-4.66 3.68 -5.32 2.36 -6 1 C-4 0 -4 0 0 0 Z " fill="#3C4D5A" transform="translate(412,186)"/>
<path d="M0 0 C2.99332739 0.9977758 3.94766315 1.7522025 6 4 C5.67 4.99 5.34 5.98 5 7 C3.29115995 5.37660195 1.62553283 3.70680947 0 2 C0 1.34 0 0.68 0 0 Z " fill="#485760" transform="translate(379,153)"/>
<path d="M0 0 C0.33 0 0.66 0 1 0 C1.25 2.25 1.25 2.25 1 5 C-1 7.3125 -1 7.3125 -3 9 C-3 5.30581799 -1.71820705 3.22163822 0 0 Z " fill="#414C54" transform="translate(47,147)"/>
<path d="M0 0 C0.66 0.33 1.32 0.66 2 1 C0.70700306 3.88437779 -0.65941363 5.87219421 -3 8 C-3 6.68 -3 5.36 -3 4 C-2.34 4 -1.68 4 -1 4 C-0.67 2.68 -0.34 1.36 0 0 Z " fill="#3F4D58" transform="translate(83,144)"/>
<path d="M0 0 C0.66 0.33 1.32 0.66 2 1 C1.67 2.98 1.34 4.96 1 7 C0.34 7 -0.32 7 -1 7 C-1.625 5.1875 -1.625 5.1875 -2 3 C-1.34 2.01 -0.68 1.02 0 0 Z " fill="#2F4048" transform="translate(443,130)"/>
<path d="M0 0 C0 0.66 0 1.32 0 2 C-1.65 2.66 -3.3 3.32 -5 4 C-5.33 2.68 -5.66 1.36 -6 0 C-3 -1 -3 -1 0 0 Z " fill="#40505C" transform="translate(183,130)"/>
<path d="M0 0 C1.98 0.66 3.96 1.32 6 2 C5.67 2.99 5.34 3.98 5 5 C3.02 4.34 1.04 3.68 -1 3 C-0.67 2.01 -0.34 1.02 0 0 Z " fill="#404C57" transform="translate(119,91)"/>
<path d="M0 0 C-5.75 4 -5.75 4 -8 4 C-5.97675095 -0.48005146 -4.79569304 -1.43870791 0 0 Z " fill="#435258" transform="translate(150,85)"/>
</svg>
